<svg id="visual" viewBox="0 0 1920 1080" width="1920" height="1080" xmlns="http://www.w3.org/2000/svg" xmlns:xlink="http://www.w3.org/1999/xlink" version="1.1"><g stroke-width="7" stroke-linejoin="bevel"><path d="M940 483L925 408L818 402Z" fill="#003550" stroke="#131414"></path><path d="M818 402L813 563L940 483Z" fill="#003044" stroke="#131414"></path><path d="M813 563L1016 681L940 483Z" fill="#0f2024" stroke="#131414"></path><path d="M940 483L1132 532L925 408Z" fill="#003d69" stroke="#131414"></path><path d="M1016 681L1132 532L940 483Z" fill="#042b38" stroke="#131414"></path><path d="M813 563L826 743L1016 681Z" fill="#004075" stroke="#131414"></path><path d="M1197 325L903 168L925 408Z" fill="#144380" stroke="#131414"></path><path d="M925 408L903 168L818 402Z" fill="#121a1b" stroke="#131414"></path><path d="M903 168L796 149L818 402Z" fill="#042b38" stroke="#131414"></path><path d="M818 402L545 546L813 563Z" fill="#003550" stroke="#131414"></path><path d="M525 358L545 546L818 402Z" fill="#121a1b" stroke="#131414"></path><path d="M813 563L560 721L826 743Z" fill="#121a1b" stroke="#131414"></path><path d="M1132 532L1197 325L925 408Z" fill="#042b38" stroke="#131414"></path><path d="M604 159L525 358L818 402Z" fill="#004075" stroke="#131414"></path><path d="M995 870L1113 734L1016 681Z" fill="#131414" stroke="#131414"></path><path d="M1016 681L1113 734L1132 532Z" fill="#004075" stroke="#131414"></path><path d="M1132 532L1389 543L1197 325Z" fill="#0f2024" stroke="#131414"></path><path d="M796 149L604 159L818 402Z" fill="#131414" stroke="#131414"></path><path d="M545 546L560 721L813 563Z" fill="#144380" stroke="#131414"></path><path d="M385 543L560 721L545 546Z" fill="#0f2024" stroke="#131414"></path><path d="M560 721L738 854L826 743Z" fill="#003044" stroke="#131414"></path><path d="M826 743L995 870L1016 681Z" fill="#003044" stroke="#131414"></path><path d="M738 854L995 870L826 743Z" fill="#0a262d" stroke="#131414"></path><path d="M398 197L434 403L525 358Z" fill="#003d69" stroke="#131414"></path><path d="M525 358L434 403L545 546Z" fill="#0f2024" stroke="#131414"></path><path d="M1197 325L1163 134L903 168Z" fill="#121a1b" stroke="#131414"></path><path d="M903 168L764 0L796 149Z" fill="#042b38" stroke="#131414"></path><path d="M796 149L764 0L604 159Z" fill="#121a1b" stroke="#131414"></path><path d="M1005 0L764 0L903 168Z" fill="#0f2024" stroke="#131414"></path><path d="M1163 134L1005 0L903 168Z" fill="#00395d" stroke="#131414"></path><path d="M995 870L1123 870L1113 734Z" fill="#121a1b" stroke="#131414"></path><path d="M1340 758L1389 543L1132 532Z" fill="#0a262d" stroke="#131414"></path><path d="M434 403L385 543L545 546Z" fill="#144380" stroke="#131414"></path><path d="M1340 758L1132 532L1113 734Z" fill="#003044" stroke="#131414"></path><path d="M1197 325L1331 123L1163 134Z" fill="#004075" stroke="#131414"></path><path d="M1389 543L1392 351L1197 325Z" fill="#003d69" stroke="#131414"></path><path d="M1331 123L1146 0L1163 134Z" fill="#003044" stroke="#131414"></path><path d="M1163 134L1146 0L1005 0Z" fill="#121a1b" stroke="#131414"></path><path d="M764 0L587 0L604 159Z" fill="#042b38" stroke="#131414"></path><path d="M604 159L398 197L525 358Z" fill="#042b38" stroke="#131414"></path><path d="M587 0L398 197L604 159Z" fill="#003550" stroke="#131414"></path><path d="M434 403L224 556L385 543Z" fill="#003550" stroke="#131414"></path><path d="M560 721L561 921L738 854Z" fill="#121a1b" stroke="#131414"></path><path d="M738 854L824 1080L995 870Z" fill="#0a262d" stroke="#131414"></path><path d="M995 870L1159 1080L1123 870Z" fill="#003d69" stroke="#131414"></path><path d="M396 884L561 921L560 721Z" fill="#003d69" stroke="#131414"></path><path d="M1123 870L1340 758L1113 734Z" fill="#003d69" stroke="#131414"></path><path d="M1392 351L1331 123L1197 325Z" fill="#0f2024" stroke="#131414"></path><path d="M224 556L324 695L385 543Z" fill="#003d69" stroke="#131414"></path><path d="M385 543L324 695L560 721Z" fill="#042b38" stroke="#131414"></path><path d="M561 921L824 1080L738 854Z" fill="#003d69" stroke="#131414"></path><path d="M1123 870L1390 879L1340 758Z" fill="#003d69" stroke="#131414"></path><path d="M824 1080L953 1080L995 870Z" fill="#0a262d" stroke="#131414"></path><path d="M324 695L396 884L560 721Z" fill="#004075" stroke="#131414"></path><path d="M561 921L545 1080L824 1080Z" fill="#0a262d" stroke="#131414"></path><path d="M159 323L224 556L434 403Z" fill="#003d69" stroke="#131414"></path><path d="M324 695L231 763L396 884Z" fill="#042b38" stroke="#131414"></path><path d="M1389 543L1513 346L1392 351Z" fill="#003d69" stroke="#131414"></path><path d="M1392 351L1525 198L1331 123Z" fill="#003044" stroke="#131414"></path><path d="M1586 570L1513 346L1389 543Z" fill="#003044" stroke="#131414"></path><path d="M1474 897L1504 668L1340 758Z" fill="#00395d" stroke="#131414"></path><path d="M1340 758L1504 668L1389 543Z" fill="#0f2024" stroke="#131414"></path><path d="M1287 1080L1390 879L1123 870Z" fill="#003044" stroke="#131414"></path><path d="M1525 198L1360 0L1331 123Z" fill="#003044" stroke="#131414"></path><path d="M1331 123L1360 0L1146 0Z" fill="#003044" stroke="#131414"></path><path d="M587 0L370 0L398 197Z" fill="#144380" stroke="#131414"></path><path d="M398 197L159 323L434 403Z" fill="#003044" stroke="#131414"></path><path d="M953 1080L1159 1080L995 870Z" fill="#004075" stroke="#131414"></path><path d="M370 0L250 146L398 197Z" fill="#00395d" stroke="#131414"></path><path d="M411 1080L545 1080L561 921Z" fill="#042b38" stroke="#131414"></path><path d="M1513 346L1525 198L1392 351Z" fill="#0f2024" stroke="#131414"></path><path d="M1709 236L1525 198L1513 346Z" fill="#003d69" stroke="#131414"></path><path d="M224 556L231 763L324 695Z" fill="#003550" stroke="#131414"></path><path d="M396 884L411 1080L561 921Z" fill="#003d69" stroke="#131414"></path><path d="M250 146L159 323L398 197Z" fill="#003044" stroke="#131414"></path><path d="M0 772L186 953L231 763Z" fill="#121a1b" stroke="#131414"></path><path d="M1735 755L1586 570L1504 668Z" fill="#003d69" stroke="#131414"></path><path d="M1504 668L1586 570L1389 543Z" fill="#0a262d" stroke="#131414"></path><path d="M1287 1080L1474 897L1390 879Z" fill="#003550" stroke="#131414"></path><path d="M1390 879L1474 897L1340 758Z" fill="#144380" stroke="#131414"></path><path d="M1159 1080L1287 1080L1123 870Z" fill="#0f2024" stroke="#131414"></path><path d="M186 953L411 1080L396 884Z" fill="#003550" stroke="#131414"></path><path d="M370 0L211 0L250 146Z" fill="#00395d" stroke="#131414"></path><path d="M0 133L0 354L159 323Z" fill="#0f2024" stroke="#131414"></path><path d="M1735 755L1692 502L1586 570Z" fill="#003044" stroke="#131414"></path><path d="M1586 570L1692 502L1513 346Z" fill="#144380" stroke="#131414"></path><path d="M0 559L231 763L224 556Z" fill="#0f2024" stroke="#131414"></path><path d="M231 763L186 953L396 884Z" fill="#003d69" stroke="#131414"></path><path d="M1670 0L1583 0L1525 198Z" fill="#121a1b" stroke="#131414"></path><path d="M1525 198L1583 0L1360 0Z" fill="#131414" stroke="#131414"></path><path d="M1777 385L1709 236L1513 346Z" fill="#003d69" stroke="#131414"></path><path d="M159 323L0 559L224 556Z" fill="#0f2024" stroke="#131414"></path><path d="M0 354L0 559L159 323Z" fill="#004075" stroke="#131414"></path><path d="M0 133L159 323L250 146Z" fill="#042b38" stroke="#131414"></path><path d="M1287 1080L1524 1080L1474 897Z" fill="#144380" stroke="#131414"></path><path d="M1725 850L1735 755L1504 668Z" fill="#004075" stroke="#131414"></path><path d="M1920 503L1777 385L1692 502Z" fill="#003550" stroke="#131414"></path><path d="M1692 502L1777 385L1513 346Z" fill="#00395d" stroke="#131414"></path><path d="M1725 850L1504 668L1474 897Z" fill="#003550" stroke="#131414"></path><path d="M1709 236L1670 0L1525 198Z" fill="#0f2024" stroke="#131414"></path><path d="M1920 0L1670 0L1709 236Z" fill="#131414" stroke="#131414"></path><path d="M0 559L0 772L231 763Z" fill="#003550" stroke="#131414"></path><path d="M211 0L0 133L250 146Z" fill="#003d69" stroke="#131414"></path><path d="M1524 1080L1725 850L1474 897Z" fill="#131414" stroke="#131414"></path><path d="M1735 755L1920 503L1692 502Z" fill="#042b38" stroke="#131414"></path><path d="M186 953L140 1080L411 1080Z" fill="#144380" stroke="#131414"></path><path d="M0 911L140 1080L186 953Z" fill="#0a262d" stroke="#131414"></path><path d="M0 772L0 911L186 953Z" fill="#144380" stroke="#131414"></path><path d="M211 0L0 0L0 133Z" fill="#004075" stroke="#131414"></path><path d="M1920 774L1920 503L1735 755Z" fill="#00395d" stroke="#131414"></path><path d="M1777 385L1920 215L1709 236Z" fill="#00395d" stroke="#131414"></path><path d="M1920 503L1920 402L1777 385Z" fill="#0a262d" stroke="#131414"></path><path d="M0 911L0 1080L140 1080Z" fill="#121a1b" stroke="#131414"></path><path d="M1920 402L1920 215L1777 385Z" fill="#004075" stroke="#131414"></path><path d="M1920 854L1920 774L1725 850Z" fill="#003044" stroke="#131414"></path><path d="M1725 850L1920 774L1735 755Z" fill="#003d69" stroke="#131414"></path><path d="M1524 1080L1774 1080L1725 850Z" fill="#004075" stroke="#131414"></path><path d="M1774 1080L1920 854L1725 850Z" fill="#042b38" stroke="#131414"></path><path d="M1920 215L1920 0L1709 236Z" fill="#00395d" stroke="#131414"></path><path d="M1774 1080L1920 1080L1920 854Z" fill="#0a262d" stroke="#131414"></path></g></svg>