<svg width="1920" height="1080" viewBox="0 0 1920 1080" fill="none" xmlns="http://www.w3.org/2000/svg">
<g clip-path="url(#clip0_67_2)">
<rect width="1920" height="1080" fill="#131A32"/>
<g opacity="0.45">
<path d="M940 483L925 408L818 402L940 483Z" fill="#003550" stroke="#131A32" stroke-width="7" stroke-linejoin="bevel"/>
<path d="M818 402L813 563L940 483L818 402Z" fill="#082D41" stroke="#131A32" stroke-width="7" stroke-linejoin="bevel"/>
<path d="M813 563L1016 681L940 483L813 563Z" fill="#1A4974" fill-opacity="0.62" stroke="#131A32" stroke-width="7" stroke-linejoin="bevel"/>
<path d="M940 483L1132 532L925 408L940 483Z" fill="#177FC9" stroke="#131A32" stroke-width="7" stroke-linejoin="bevel"/>
<path d="M1016 681L1132 532L940 483L1016 681Z" fill="#042B38" stroke="#131A32" stroke-width="7" stroke-linejoin="bevel"/>
<path d="M813 563L826 743L1016 681L813 563Z" fill="#0F385B" stroke="#131A32" stroke-width="7" stroke-linejoin="bevel"/>
<path d="M1197 325L903 168L925 408L1197 325Z" fill="#348CFF" fill-opacity="0.64" stroke="#131A32" stroke-width="7" stroke-linejoin="bevel"/>
<path d="M925 408L903 168L818 402L925 408Z" fill="#121A1B" stroke="#131A32" stroke-width="7" stroke-linejoin="bevel"/>
<path d="M903 168L796 149L818 402L903 168Z" fill="#042B38" stroke="#131A32" stroke-width="7" stroke-linejoin="bevel"/>
<path d="M818 402L545 546L813 563L818 402Z" fill="#003550" stroke="#131A32" stroke-width="7" stroke-linejoin="bevel"/>
<path d="M525 358L545 546L818 402L525 358Z" fill="#121A1B" stroke="#131A32" stroke-width="7" stroke-linejoin="bevel"/>
<path d="M813 563L560 721L826 743L813 563Z" fill="#121A1B" stroke="#131A32" stroke-width="7" stroke-linejoin="bevel"/>
<path d="M1132 532L1197 325L925 408L1132 532Z" fill="#042B38" stroke="#131A32" stroke-width="7" stroke-linejoin="bevel"/>
<path d="M604 159L525 358L818 402L604 159Z" fill="#0F385B" stroke="#131A32" stroke-width="7" stroke-linejoin="bevel"/>
<path d="M995 870L1113 734L1016 681L995 870Z" fill="#131A32" stroke="#131A32" stroke-width="7" stroke-linejoin="bevel"/>
<path d="M1016 681L1113 734L1132 532L1016 681Z" fill="#0F385B" stroke="#131A32" stroke-width="7" stroke-linejoin="bevel"/>
<path d="M1132 532L1389 543L1197 325L1132 532Z" fill="#1A4974" fill-opacity="0.62" stroke="#131A32" stroke-width="7" stroke-linejoin="bevel"/>
<path d="M796 149L604 159L818 402L796 149Z" fill="#131A32" stroke="#131A32" stroke-width="7" stroke-linejoin="bevel"/>
<path d="M545 546L560 721L813 563L545 546Z" fill="#348CFF" fill-opacity="0.64" stroke="#131A32" stroke-width="7" stroke-linejoin="bevel"/>
<path d="M385 543L560 721L545 546L385 543Z" fill="#1A4974" fill-opacity="0.62" stroke="#131A32" stroke-width="7" stroke-linejoin="bevel"/>
<path d="M560 721L738 854L826 743L560 721Z" fill="#082D41" stroke="#131A32" stroke-width="7" stroke-linejoin="bevel"/>
<path d="M826 743L995 870L1016 681L826 743Z" fill="#082D41" stroke="#131A32" stroke-width="7" stroke-linejoin="bevel"/>
<path d="M738 854L995 870L826 743L738 854Z" fill="#0A262D" stroke="#131A32" stroke-width="7" stroke-linejoin="bevel"/>
<path d="M398 197L434 403L525 358L398 197Z" fill="#177FC9" stroke="#131A32" stroke-width="7" stroke-linejoin="bevel"/>
<path d="M525 358L434 403L545 546L525 358Z" fill="#1A4974" fill-opacity="0.62" stroke="#131A32" stroke-width="7" stroke-linejoin="bevel"/>
<path d="M1197 325L1163 134L903 168L1197 325Z" fill="#121A1B" stroke="#131A32" stroke-width="7" stroke-linejoin="bevel"/>
<path d="M903 168L764 0L796 149L903 168Z" fill="#042B38" stroke="#131A32" stroke-width="7" stroke-linejoin="bevel"/>
<path d="M796 149L764 0L604 159L796 149Z" fill="#121A1B" stroke="#131A32" stroke-width="7" stroke-linejoin="bevel"/>
<path d="M1005 0H764L903 168L1005 0Z" fill="#1A4974" fill-opacity="0.62" stroke="#131A32" stroke-width="7" stroke-linejoin="bevel"/>
<path d="M1163 134L1005 0L903 168L1163 134Z" fill="#00395D" stroke="#131A32" stroke-width="7" stroke-linejoin="bevel"/>
<path d="M995 870H1123L1113 734L995 870Z" fill="#121A1B" stroke="#131A32" stroke-width="7" stroke-linejoin="bevel"/>
<path d="M1340 758L1389 543L1132 532L1340 758Z" fill="#0A262D" stroke="#131A32" stroke-width="7" stroke-linejoin="bevel"/>
<path d="M434 403L385 543L545 546L434 403Z" fill="#348CFF" fill-opacity="0.64" stroke="#131A32" stroke-width="7" stroke-linejoin="bevel"/>
<path d="M1340 758L1132 532L1113 734L1340 758Z" fill="#082D41" stroke="#131A32" stroke-width="7" stroke-linejoin="bevel"/>
<path d="M1197 325L1331 123L1163 134L1197 325Z" fill="#0F385B" stroke="#131A32" stroke-width="7" stroke-linejoin="bevel"/>
<path d="M1389 543L1392 351L1197 325L1389 543Z" fill="#177FC9" stroke="#131A32" stroke-width="7" stroke-linejoin="bevel"/>
<path d="M1331 123L1146 0L1163 134L1331 123Z" fill="#082D41" stroke="#131A32" stroke-width="7" stroke-linejoin="bevel"/>
<path d="M1163 134L1146 0H1005L1163 134Z" fill="#121A1B" stroke="#131A32" stroke-width="7" stroke-linejoin="bevel"/>
<path d="M764 0H587L604 159L764 0Z" fill="#042B38" stroke="#131A32" stroke-width="7" stroke-linejoin="bevel"/>
<path d="M604 159L398 197L525 358L604 159Z" fill="#042B38" stroke="#131A32" stroke-width="7" stroke-linejoin="bevel"/>
<path d="M587 0L398 197L604 159L587 0Z" fill="#003550" stroke="#131A32" stroke-width="7" stroke-linejoin="bevel"/>
<path d="M434 403L224 556L385 543L434 403Z" fill="#003550" stroke="#131A32" stroke-width="7" stroke-linejoin="bevel"/>
<path d="M560 721L561 921L738 854L560 721Z" fill="#121A1B" stroke="#131A32" stroke-width="7" stroke-linejoin="bevel"/>
<path d="M738 854L824 1080L995 870L738 854Z" fill="#0A262D" stroke="#131A32" stroke-width="7" stroke-linejoin="bevel"/>
<path d="M995 870L1159 1080L1123 870H995Z" fill="#177FC9" stroke="#131A32" stroke-width="7" stroke-linejoin="bevel"/>
<path d="M396 884L561 921L560 721L396 884Z" fill="#177FC9" stroke="#131A32" stroke-width="7" stroke-linejoin="bevel"/>
<path d="M1123 870L1340 758L1113 734L1123 870Z" fill="#177FC9" stroke="#131A32" stroke-width="7" stroke-linejoin="bevel"/>
<path d="M1392 351L1331 123L1197 325L1392 351Z" fill="#1A4974" fill-opacity="0.62" stroke="#131A32" stroke-width="7" stroke-linejoin="bevel"/>
<path d="M224 556L324 695L385 543L224 556Z" fill="#177FC9" stroke="#131A32" stroke-width="7" stroke-linejoin="bevel"/>
<path d="M385 543L324 695L560 721L385 543Z" fill="#042B38" stroke="#131A32" stroke-width="7" stroke-linejoin="bevel"/>
<path d="M561 921L824 1080L738 854L561 921Z" fill="#177FC9" stroke="#131A32" stroke-width="7" stroke-linejoin="bevel"/>
<path d="M1123 870L1390 879L1340 758L1123 870Z" fill="#177FC9" stroke="#131A32" stroke-width="7" stroke-linejoin="bevel"/>
<path d="M824 1080H953L995 870L824 1080Z" fill="#0A262D" stroke="#131A32" stroke-width="7" stroke-linejoin="bevel"/>
<path d="M324 695L396 884L560 721L324 695Z" fill="#0F385B" stroke="#131A32" stroke-width="7" stroke-linejoin="bevel"/>
<path d="M561 921L545 1080H824L561 921Z" fill="#0A262D" stroke="#131A32" stroke-width="7" stroke-linejoin="bevel"/>
<path d="M159 323L224 556L434 403L159 323Z" fill="#177FC9" stroke="#131A32" stroke-width="7" stroke-linejoin="bevel"/>
<path d="M324 695L231 763L396 884L324 695Z" fill="#042B38" stroke="#131A32" stroke-width="7" stroke-linejoin="bevel"/>
<path d="M1389 543L1513 346L1392 351L1389 543Z" fill="#177FC9" stroke="#131A32" stroke-width="7" stroke-linejoin="bevel"/>
<path d="M1392 351L1525 198L1331 123L1392 351Z" fill="#082D41" stroke="#131A32" stroke-width="7" stroke-linejoin="bevel"/>
<path d="M1586 570L1513 346L1389 543L1586 570Z" fill="#082D41" stroke="#131A32" stroke-width="7" stroke-linejoin="bevel"/>
<path d="M1474 897L1504 668L1340 758L1474 897Z" fill="#00395D" stroke="#131A32" stroke-width="7" stroke-linejoin="bevel"/>
<path d="M1340 758L1504 668L1389 543L1340 758Z" fill="#1A4974" fill-opacity="0.62" stroke="#131A32" stroke-width="7" stroke-linejoin="bevel"/>
<path d="M1287 1080L1390 879L1123 870L1287 1080Z" fill="#082D41" stroke="#131A32" stroke-width="7" stroke-linejoin="bevel"/>
<path d="M1525 198L1360 0L1331 123L1525 198Z" fill="#082D41" stroke="#131A32" stroke-width="7" stroke-linejoin="bevel"/>
<path d="M1331 123L1360 0H1146L1331 123Z" fill="#082D41" stroke="#131A32" stroke-width="7" stroke-linejoin="bevel"/>
<path d="M587 0H370L398 197L587 0Z" fill="#348CFF" fill-opacity="0.64" stroke="#131A32" stroke-width="7" stroke-linejoin="bevel"/>
<path d="M398 197L159 323L434 403L398 197Z" fill="#082D41" stroke="#131A32" stroke-width="7" stroke-linejoin="bevel"/>
<path d="M953 1080H1159L995 870L953 1080Z" fill="#0F385B" stroke="#131A32" stroke-width="7" stroke-linejoin="bevel"/>
<path d="M370 0L250 146L398 197L370 0Z" fill="#00395D" stroke="#131A32" stroke-width="7" stroke-linejoin="bevel"/>
<path d="M411 1080H545L561 921L411 1080Z" fill="#042B38" stroke="#131A32" stroke-width="7" stroke-linejoin="bevel"/>
<path d="M1513 346L1525 198L1392 351L1513 346Z" fill="#1A4974" fill-opacity="0.62" stroke="#131A32" stroke-width="7" stroke-linejoin="bevel"/>
<path d="M1709 236L1525 198L1513 346L1709 236Z" fill="#177FC9" stroke="#131A32" stroke-width="7" stroke-linejoin="bevel"/>
<path d="M224 556L231 763L324 695L224 556Z" fill="#003550" stroke="#131A32" stroke-width="7" stroke-linejoin="bevel"/>
<path d="M396 884L411 1080L561 921L396 884Z" fill="#177FC9" stroke="#131A32" stroke-width="7" stroke-linejoin="bevel"/>
<path d="M250 146L159 323L398 197L250 146Z" fill="#082D41" stroke="#131A32" stroke-width="7" stroke-linejoin="bevel"/>
<path d="M0 772L186 953L231 763L0 772Z" fill="#121A1B" stroke="#131A32" stroke-width="7" stroke-linejoin="bevel"/>
<path d="M1735 755L1586 570L1504 668L1735 755Z" fill="#177FC9" stroke="#131A32" stroke-width="7" stroke-linejoin="bevel"/>
<path d="M1504 668L1586 570L1389 543L1504 668Z" fill="#0A262D" stroke="#131A32" stroke-width="7" stroke-linejoin="bevel"/>
<path d="M1287 1080L1474 897L1390 879L1287 1080Z" fill="#003550" stroke="#131A32" stroke-width="7" stroke-linejoin="bevel"/>
<path d="M1390 879L1474 897L1340 758L1390 879Z" fill="#348CFF" fill-opacity="0.64" stroke="#131A32" stroke-width="7" stroke-linejoin="bevel"/>
<path d="M1159 1080H1287L1123 870L1159 1080Z" fill="#1A4974" fill-opacity="0.62" stroke="#131A32" stroke-width="7" stroke-linejoin="bevel"/>
<path d="M186 953L411 1080L396 884L186 953Z" fill="#003550" stroke="#131A32" stroke-width="7" stroke-linejoin="bevel"/>
<path d="M370 0H211L250 146L370 0Z" fill="#00395D" stroke="#131A32" stroke-width="7" stroke-linejoin="bevel"/>
<path d="M0 133V354L159 323L0 133Z" fill="#1A4974" fill-opacity="0.62" stroke="#131A32" stroke-width="7" stroke-linejoin="bevel"/>
<path d="M1735 755L1692 502L1586 570L1735 755Z" fill="#082D41" stroke="#131A32" stroke-width="7" stroke-linejoin="bevel"/>
<path d="M1586 570L1692 502L1513 346L1586 570Z" fill="#348CFF" fill-opacity="0.64" stroke="#131A32" stroke-width="7" stroke-linejoin="bevel"/>
<path d="M0 559L231 763L224 556L0 559Z" fill="#1A4974" fill-opacity="0.62" stroke="#131A32" stroke-width="7" stroke-linejoin="bevel"/>
<path d="M231 763L186 953L396 884L231 763Z" fill="#177FC9" stroke="#131A32" stroke-width="7" stroke-linejoin="bevel"/>
<path d="M1670 0H1583L1525 198L1670 0Z" fill="#121A1B" stroke="#131A32" stroke-width="7" stroke-linejoin="bevel"/>
<path d="M1525 198L1583 0H1360L1525 198Z" fill="#131A32" stroke="#131A32" stroke-width="7" stroke-linejoin="bevel"/>
<path d="M1777 385L1709 236L1513 346L1777 385Z" fill="#177FC9" stroke="#131A32" stroke-width="7" stroke-linejoin="bevel"/>
<path d="M159 323L0 559L224 556L159 323Z" fill="#1A4974" fill-opacity="0.62" stroke="#131A32" stroke-width="7" stroke-linejoin="bevel"/>
<path d="M0 354V559L159 323L0 354Z" fill="#0F385B" stroke="#131A32" stroke-width="7" stroke-linejoin="bevel"/>
<path d="M0 133L159 323L250 146L0 133Z" fill="#042B38" stroke="#131A32" stroke-width="7" stroke-linejoin="bevel"/>
<path d="M1287 1080H1524L1474 897L1287 1080Z" fill="#348CFF" fill-opacity="0.64" stroke="#131A32" stroke-width="7" stroke-linejoin="bevel"/>
<path d="M1725 850L1735 755L1504 668L1725 850Z" fill="#0F385B" stroke="#131A32" stroke-width="7" stroke-linejoin="bevel"/>
<path d="M1920 503L1777 385L1692 502L1920 503Z" fill="#003550" stroke="#131A32" stroke-width="7" stroke-linejoin="bevel"/>
<path d="M1692 502L1777 385L1513 346L1692 502Z" fill="#00395D" stroke="#131A32" stroke-width="7" stroke-linejoin="bevel"/>
<path d="M1725 850L1504 668L1474 897L1725 850Z" fill="#003550" stroke="#131A32" stroke-width="7" stroke-linejoin="bevel"/>
<path d="M1709 236L1670 0L1525 198L1709 236Z" fill="#1A4974" fill-opacity="0.62" stroke="#131A32" stroke-width="7" stroke-linejoin="bevel"/>
<path d="M1920 0H1670L1709 236L1920 0Z" fill="#131A32" stroke="#131A32" stroke-width="7" stroke-linejoin="bevel"/>
<path d="M0 559V772L231 763L0 559Z" fill="#003550" stroke="#131A32" stroke-width="7" stroke-linejoin="bevel"/>
<path d="M211 0L0 133L250 146L211 0Z" fill="#177FC9" stroke="#131A32" stroke-width="7" stroke-linejoin="bevel"/>
<path d="M1524 1080L1725 850L1474 897L1524 1080Z" fill="#131A32" stroke="#131A32" stroke-width="7" stroke-linejoin="bevel"/>
<path d="M1735 755L1920 503L1692 502L1735 755Z" fill="#042B38" stroke="#131A32" stroke-width="7" stroke-linejoin="bevel"/>
<path d="M186 953L140 1080H411L186 953Z" fill="#348CFF" fill-opacity="0.64" stroke="#131A32" stroke-width="7" stroke-linejoin="bevel"/>
<path d="M0 911L140 1080L186 953L0 911Z" fill="#0A262D" stroke="#131A32" stroke-width="7" stroke-linejoin="bevel"/>
<path d="M0 772V911L186 953L0 772Z" fill="#348CFF" fill-opacity="0.64" stroke="#131A32" stroke-width="7" stroke-linejoin="bevel"/>
<path d="M211 0H0V133L211 0Z" fill="#0F385B" stroke="#131A32" stroke-width="7" stroke-linejoin="bevel"/>
<path d="M1920 774V503L1735 755L1920 774Z" fill="#00395D" stroke="#131A32" stroke-width="7" stroke-linejoin="bevel"/>
<path d="M1777 385L1920 215L1709 236L1777 385Z" fill="#00395D" stroke="#131A32" stroke-width="7" stroke-linejoin="bevel"/>
<path d="M1920 503V402L1777 385L1920 503Z" fill="#0A262D" stroke="#131A32" stroke-width="7" stroke-linejoin="bevel"/>
<path d="M0 911V1080H140L0 911Z" fill="#121A1B" stroke="#131A32" stroke-width="7" stroke-linejoin="bevel"/>
<path d="M1920 402V215L1777 385L1920 402Z" fill="#0F385B" stroke="#131A32" stroke-width="7" stroke-linejoin="bevel"/>
<path d="M1920 854V774L1725 850L1920 854Z" fill="#082D41" stroke="#131A32" stroke-width="7" stroke-linejoin="bevel"/>
<path d="M1725 850L1920 774L1735 755L1725 850Z" fill="#177FC9" stroke="#131A32" stroke-width="7" stroke-linejoin="bevel"/>
<path d="M1524 1080H1774L1725 850L1524 1080Z" fill="#0F385B" stroke="#131A32" stroke-width="7" stroke-linejoin="bevel"/>
<path d="M1774 1080L1920 854L1725 850L1774 1080Z" fill="#042B38" stroke="#131A32" stroke-width="7" stroke-linejoin="bevel"/>
<path d="M1920 215V0L1709 236L1920 215Z" fill="#00395D" stroke="#131A32" stroke-width="7" stroke-linejoin="bevel"/>
<path d="M1774 1080H1920V854L1774 1080Z" fill="#0A262D" stroke="#131A32" stroke-width="7" stroke-linejoin="bevel"/>
</g>
</g>
<defs>
<clipPath id="clip0_67_2">
<rect width="1920" height="1080" fill="white"/>
</clipPath>
</defs>
</svg>
